<svg xmlns="http://www.w3.org/2000/svg" width="40" height="32" fill="none" viewBox="0 0 40 32">
  <g clip-path="url(#a)">
    <path fill="#999" fill-rule="evenodd" d="M21.773 32h9.117s-2.994-1.553-5.062-7.694C23.752 18.16 16.71.812 16.71.812h-.508L5.57 27.139S3.995 32 0 32h13.672s-4.779-.705-2.531-6.887c2.247-6.183 7.086-17.825 7.086-17.825l7.086 19.444c.007.006 1.21 5.268-3.54 5.268Z" clip-rule="evenodd"/>
    <path fill="#59D9D9" fill-rule="evenodd" d="M22.321 20.052h.613s-.236-.013-.613 0ZM23.469 0c-10.113 0-6.787 6.707-10.664 0v10.665S16.03.849 22.935.849c6.904 0 11.733 6.072 11.733 16.642s-7.636 13.653-10.13 13.653c-2.492 0-7.463-1.315-7.463-6.398 0-4.065 3.752-4.631 5.254-4.694H8s4.27.012 4.27 4.694v3.838h1.07S17.39 32 24.539 32C31.687 32 40 27.904 40 17.491S32.883 0 23.47 0Z" clip-rule="evenodd"/>
  </g>
  <defs>
    <clipPath id="a">
      <path fill="#fff" d="M0 0h40v32H0z"/>
    </clipPath>
  </defs>
</svg>
