<svg xmlns="http://www.w3.org/2000/svg" width="315" height="67" fill="none" viewBox="0 0 315 67">
  <path fill="#fff" d="M1.696 66H.64L26.952 4.4l.968-.44L50.096 66h-7.48l-6.864-19.36H10.056L1.696 66Zm22.528-52.096L10.408 45.76h25.08L24.224 13.904ZM66.579 66c-5.163 0-8.419-1.35-9.768-4.048-.294-.587-.44-1.115-.44-1.584V.088h6.16v59.664c0 1.701.322 3.021.968 3.96.704.88 1.408 1.35 2.112 1.408l.968.176h2.728V66h-2.728Zm16.62 0c-2.405 0-4.253-.528-5.544-1.584-1.232-1.056-1.877-2.112-1.936-3.168l-.088-1.496V22h6.16v37.752c0 1.701.323 3.021.968 3.96.704.88 1.379 1.35 2.024 1.408l1.056.176h2.728V66H83.2Zm-7.04-53.856c-.704-.704-1.056-1.584-1.056-2.64s.352-1.936 1.056-2.64c.704-.763 1.584-1.144 2.64-1.144s1.936.381 2.64 1.144c.763.704 1.144 1.584 1.144 2.64s-.381 1.936-1.144 2.64c-.704.704-1.584 1.056-2.64 1.056s-1.936-.352-2.64-1.056Zm51.055 54.208c-10.971 0-19.096-3.11-24.376-9.328-1.878-2.23-3.403-5.192-4.576-8.888-1.174-3.696-1.76-8.184-1.76-13.464 0-5.28.85-10.003 2.552-14.168 1.76-4.224 4.136-7.48 7.128-9.768C111.99 6.453 119 4.312 127.214 4.312c2.64 0 5.221.205 7.744.616 2.522.352 4.4.733 5.632 1.144l1.848.616-.264.88c-4.576-1.584-9.563-2.376-14.96-2.376-6.219 0-11.411 2.024-15.576 6.072-3.168 2.992-5.398 7.392-6.688 13.2-.763 3.285-1.144 7.304-1.144 12.056 0 4.752.674 9.152 2.024 13.2 1.349 3.99 2.874 6.952 4.576 8.888 1.76 1.936 3.872 3.49 6.336 4.664 2.464 1.115 4.429 1.76 5.896 1.936 1.466.176 3.197.264 5.192.264 2.053 0 4.781-.235 8.184-.704V46.64h-10.648v-.88h21.736v.88h-3.784v17.336c-4.459 1.584-9.827 2.376-16.104 2.376Zm29.997-10.472c0 4.635 1.232 7.597 3.696 8.888 1.174.587 2.67.88 4.488.88 3.696 0 6.982-1.408 9.856-4.224 2.934-2.816 4.518-5.427 4.752-7.832V22h6.16v37.752c0 1.701.323 3.021.968 3.96.704.88 1.408 1.35 2.112 1.408l.968.176h2.728V66h-5.368c-2.405 0-4.253-.528-5.544-1.584-1.232-1.056-1.877-2.112-1.936-3.168l-.088-1.496v-3.784c-1.056 2.523-2.933 4.899-5.632 7.128-2.698 2.17-5.661 3.256-8.888 3.256-3.168 0-5.778-.293-7.832-.88-1.994-.645-3.432-1.525-4.312-2.64-1.525-1.819-2.288-4.165-2.288-7.04V22h6.16v33.88Zm-.616-43.736c-.704-.704-1.056-1.584-1.056-2.64s.352-1.936 1.056-2.64c.704-.763 1.584-1.144 2.64-1.144s1.936.381 2.64 1.144c.763.704 1.144 1.584 1.144 2.64s-.381 1.936-1.144 2.64c-.704.704-1.584 1.056-2.64 1.056s-1.936-.352-2.64-1.056Zm19.184 0c-.704-.704-1.056-1.584-1.056-2.64s.352-1.936 1.056-2.64c.704-.763 1.584-1.144 2.64-1.144s1.936.381 2.64 1.144c.763.704 1.144 1.584 1.144 2.64s-.381 1.936-1.144 2.64c-.704.704-1.584 1.056-2.64 1.056s-1.936-.352-2.64-1.056Zm48.822 10.384.528-.528c.235.117.528.47.88 1.056.411.587.646 1.115.704 1.584.118.47.176.91.176 1.32 0 1.584-.352 3.197-1.056 4.84L208.937 66h-.88l-16.368-44h6.16l13.464 36.432 13.64-27.632c.704-1.232 1.056-2.699 1.056-4.4 0-1.701-.469-2.992-1.408-3.872Zm13.13 22c0 7.275 1.261 12.613 3.784 16.016 2.581 3.403 5.954 5.104 10.12 5.104 5.866 0 11.088-.88 15.664-2.64l.264.616c-4.694 1.819-10.003 2.728-15.928 2.728-5.867 0-10.648-1.76-14.344-5.28-3.696-3.52-5.544-8.947-5.544-16.28 0-7.333 1.936-13.024 5.808-17.072s8.8-6.072 14.784-6.072c4.81 0 8.858 1.437 12.144 4.312 3.285 2.875 4.928 7.128 4.928 12.76v.88h-31.416a44.623 44.623 0 0 0-.264 4.928Zm25.696-5.632c-.059-5.632-1.144-9.797-3.256-12.496s-4.84-4.048-8.184-4.048c-3.344 0-6.336 1.467-8.976 4.4-2.582 2.933-4.224 6.981-4.928 12.144h25.344ZM309.517 66c-2.406 0-4.254-.528-5.544-1.584-1.232-1.056-1.878-2.112-1.936-3.168l-.088-1.496V32.12c0-4.635-1.203-7.597-3.608-8.888-1.232-.587-2.758-.88-4.576-.88-3.755 0-7.128 1.496-10.12 4.488-2.992 2.933-4.488 5.573-4.488 7.92V66h-6.16V22h6.16v10.032c.997-2.523 2.845-4.87 5.544-7.04 2.698-2.23 5.661-3.344 8.888-3.344 3.226 0 5.837.323 7.832.968 2.053.587 3.549 1.437 4.488 2.552 1.466 1.819 2.2 4.165 2.2 7.04v27.544c0 1.701.322 3.021.968 3.96.704.88 1.408 1.35 2.112 1.408l.968.176h2.728V66h-5.368Z"/>
</svg>
